<svg xmlns="http://www.w3.org/2000/svg" width="384" height="128" class="icon" viewBox="0 0 3072 1024"><path fill="#fff" d="M1549.653 250.88c-6.826-3.413-13.653-5.12-13.653-3.413 0 0-1.707 1.706 1.707 1.706 0 0 15.36 1.707 17.066 13.654 0 0 3.414 17.066-15.36 34.133v3.413c0 3.414-1.706 5.12-3.413 10.24-3.413 3.414-13.653 17.067-17.067 20.48-3.413 3.414-3.413 5.12-5.12 8.534-1.706 3.413-5.12 3.413-8.533 6.826-3.413 1.707-6.827 3.414-11.947 5.12-5.12 0-11.946 1.707-15.36 3.414-3.413 1.706-3.413 0-5.12-5.12 0-5.12-1.706-27.307-1.706-29.014 0-3.413-1.707-3.413-1.707-6.826s3.413-6.827 3.413-10.24c0-3.414 0-10.24 6.827-13.654 6.827-3.413 22.187-8.533 30.72-13.653 8.533-3.413 17.067-6.827 20.48-13.653 0 0 1.707-3.414 3.413-1.707 1.707 0 0 6.827 3.414 5.12 1.706-1.707 1.706 0 1.706-3.413s1.707-5.12 5.12-3.414c0 0 8.534 1.707 8.534 0s-5.12-3.413-8.534-5.12c-3.413-1.706-6.826-3.413-8.533-1.706 0 1.706-1.707 3.413-3.413 3.413s-5.12-1.707-5.12 1.707c1.706 1.706 1.706 3.413 0 5.12-1.707 1.706-1.707 0-3.414 0h-5.12c-3.413 0-3.413 0-1.706-3.414 0-3.413 1.706-3.413 1.706-5.12 0-1.706-3.413-3.413-5.12-1.706-1.706 0-1.706 1.706-5.12 3.413-3.413-1.707-6.826 0-6.826 0s-3.414-1.707-3.414 0-1.706 1.707-3.413 1.707-1.707-1.707 0-3.414c1.707 0 0-3.413-1.707-3.413s-1.706-1.707 1.707-3.413c3.413 0 5.12-1.707 5.12-3.414 0 0 1.707-1.706-3.413-1.706-3.414 0-22.187 1.706-25.6 1.706-3.414 0-5.12 0-5.12 1.707s1.706 1.707 1.706 1.707c13.654-1.707 18.774 0 18.774 1.706s-10.24 0-10.24 0c-6.827 0-8.534 1.707-10.24 3.414-1.707 1.706-3.414 1.706-3.414 1.706-3.413-5.12-10.24-5.12-13.653-5.12h-3.413c-5.12 0-10.24-8.533-17.067-15.36s-11.947-18.773-18.773-30.72c-5.12-11.946-11.947-18.773-11.947-18.773-13.653-18.773-39.253-20.48-42.667-20.48-3.413 0-1.706 5.12-1.706 5.12s5.12 6.827 5.12 11.947l-5.12 1.706s5.12 8.534 6.826 15.36c1.707 6.827 1.707 20.48 1.707 29.014s-1.707 18.773-3.413 22.186c0 0-3.414 6.827-1.707 11.947 1.707 3.413 1.707 10.24 0 15.36-1.707 5.12-6.827 8.533-6.827 11.947 0 3.413 1.707 3.413-1.706 5.12-3.414 1.706-18.774 6.826-23.894 10.24-5.12 3.413-10.24 3.413-15.36 6.826-5.12 1.707-6.826 3.414-11.946 6.827-5.12 1.707-15.36 5.12-17.067 8.533-1.707 3.414-3.413 5.12-13.653 6.827 0 0-3.414 0 0-6.827s-1.707-8.533-3.414-15.36-1.706-6.826-5.12-13.653c-1.706-6.827-1.706-8.533-3.413-13.653-1.707-3.414-6.827-3.414-8.533 1.706 0 5.12-1.707 3.414-5.12 8.534-1.707 5.12-6.827 18.773-10.24 27.306-3.414 8.534-8.534 18.774-10.24 27.307-1.707 8.533-6.827 11.947-8.534 17.067-1.706 3.413-1.706 3.413-1.706 8.533 0 3.413-1.707 6.827-3.414 11.947-1.706 3.413-5.12 6.826-6.826 13.653-1.707 6.827-3.414 17.067-3.414 25.6s-1.706 17.067 1.707 22.187c3.413 3.413 3.413 3.413 6.827 11.946 3.413 6.827 3.413 10.24 6.826 11.947 0 0 6.827 11.947 11.947 11.947 5.12 0 8.533-1.707 13.653-3.414 5.12-1.706 8.534-5.12 10.24 1.707 1.707 6.827 1.707 23.893 10.24 27.307 0 0 5.12 0 11.947 1.706 6.827 1.707 11.947 1.707 17.067 0 5.12-1.706 8.533-6.826 25.6-8.533 0 0 30.72-3.413 44.373-11.947 0 0 1.707 5.12 3.413 11.947 1.707 5.12 3.414 13.653 1.707 18.773 0 5.12-3.413 18.774 0 29.014 0 0 3.413 13.653 3.413 22.186v23.894c0 6.826 1.707 15.36 3.414 18.773 1.706 3.413 1.706 5.12 0 10.24s-1.707 15.36 0 23.893c0 0 3.413 10.24 3.413 15.36s0 10.24 1.707 10.24c0 0 1.706 1.707 1.706-1.706v-8.534c0-3.413-1.706-3.413 1.707-3.413 1.707 0 1.707 0 3.413 3.413 0 0-1.706 5.12 1.707 3.414 1.707 0 3.413-5.12 0-10.24s-5.12 1.706-5.12-15.36c0 0 1.707-13.654 5.12-8.534 0 0 8.533 18.774 10.24 34.134 0 0 1.707 1.706 5.12 0 3.413-1.707 6.827 0 3.413 3.413s-5.12 1.707-5.12 11.947c0 6.826-3.413 20.48 1.707 20.48 0 0 1.707 1.706 5.12-1.707 0 0 3.413-1.707 5.12 1.707 1.707 3.413 0 8.533 3.413 6.826 0 0 0 1.707 1.707-5.12 0-6.826 0-15.36 3.413-13.653 3.414 1.707 5.12 1.707 5.12-1.707 0 0-1.706-6.826-1.706-10.24 0-5.12 0-10.24 3.413-1.706 0 0 1.707 1.706 5.12-3.414 3.413-5.12 5.12-5.12 3.413-17.066 0 0-3.413-13.654 0-20.48 1.707-8.534 1.707-13.654 1.707-18.774 0-5.12 1.707-10.24 5.12-15.36 1.707-5.12 13.653-17.066 13.653-51.2 0 0 1.707-15.36 1.707-22.186s0-13.654 5.12-17.067c5.12-3.413 6.827-6.827 8.533-11.947 1.707-5.12 8.534-30.72 17.067-40.96l3.413-6.826c1.707-1.707 6.827-5.12 11.947-5.12 0 0 18.773-3.414 27.307-8.534 0 0 8.533-3.413 6.826-10.24 0 0 6.827 3.414 10.24-27.306l6.827-40.96c1.707-8.534 3.413-15.36 6.827-17.067 0 0 3.413-1.707 1.706-5.12 0-3.413 1.707-30.72 6.827-49.493 0 0 3.413-17.067-3.413-25.6s-10.24-10.24-13.654-11.947zM1356.8 399.36c-3.413 3.413-8.533 10.24-11.947 13.653-3.413 5.12-5.12 6.827-10.24 8.534-5.12 3.413-22.186 6.826-35.84 8.533-13.653 1.707-29.013 17.067-32.426 20.48-1.707 3.413-11.947 5.12-15.36 5.12s-3.414-5.12 0-8.533c1.706-3.414 1.706-1.707 1.706-5.12 0-3.414 0-5.12 1.707-8.534s1.707-3.413 5.12-6.826c3.413-3.414 6.827-6.827 6.827-10.24 1.706-5.12 1.706-6.827 3.413-10.24 1.707-5.12 5.12-8.534 8.533-13.654 3.414-5.12 10.24-13.653 10.24-13.653 8.534-8.533 18.774-13.653 22.187-15.36 5.12-1.707 6.827-1.707 20.48-6.827 13.653-6.826 18.773-11.946 20.48-15.36 1.707-3.413 3.413-1.706 3.413-1.706s1.707 10.24 3.414 18.773c1.706 8.533 1.706 10.24 3.413 15.36l3.413 10.24c-3.413 11.947-5.12 11.947-8.533 15.36z"/><path fill="#fff" d="M1512.107 247.467c3.413-1.707 1.706 0 5.12 0h6.826c3.414 0 3.414 0 5.12-1.707 1.707-1.707-3.413-1.707-6.826-1.707-1.707 0-3.414-1.706-5.12-1.706-3.414 0-8.534-1.707-8.534-1.707-5.12 0-6.826 5.12-6.826 5.12 3.413 5.12 6.826 1.707 10.24 1.707zm8.533 8.533c0 3.413 1.707 3.413 1.707 3.413 0-1.706 1.706-5.12 1.706-5.12h8.534c1.706-1.706-6.827-3.413-10.24-3.413-3.414 0-1.707 3.413-1.707 5.12zm-136.533 433.493c1.706-3.413 1.706-6.826 0-10.24-1.707-3.413 0-3.413-1.707-5.12-1.707-1.706-1.707-1.706-3.413-1.706 0 0-1.707 0-1.707 3.413 0 1.707 0 5.12 1.707 8.533 1.706 1.707 3.413 5.12 3.413 6.827 0 0 1.707 0 1.707-1.707zm6.826 3.414c0-3.414 0-17.067-1.706-15.36 0 0-1.707-1.707-1.707 1.706v13.654c0 3.413 3.413 5.12 3.413 0zm29.014 0c1.706-1.707 3.413-1.707 3.413-8.534 0-5.12 1.707-10.24 0-10.24 0 0-3.413-3.413-3.413 1.707 1.706 5.12-1.707 17.067 0 17.067zm295.253-312.32c-3.413-8.534-1.707-8.534 0-13.654 1.707-5.12 5.12-11.946 1.707-25.6 0 0-5.12-8.533-3.414-18.773 1.707-10.24-3.413-15.36-5.12-22.187-3.413-10.24-8.533-10.24-8.533-17.066 0-5.12-5.12-10.24-5.12-10.24s-1.707 0-3.413 5.12-8.534 22.186-5.12 34.133c0 0-1.707 5.12 0 11.947 1.706 6.826 1.706 11.946 1.706 15.36 0 3.413 1.707 5.12 0 10.24s0 13.653-3.413 20.48c-3.413 5.12-6.827 13.653-6.827 23.893 1.707 11.947 1.707 18.773-1.706 34.133 0 0-5.12 18.774-5.12 25.6 1.706 8.534-1.707 18.774-3.414 25.6-1.706 6.827-3.413 20.48-3.413 27.307 1.707 5.12 3.413 15.36 1.707 22.187s-1.707 8.533-3.414 15.36c-1.706 8.533-1.706 17.066 3.414 30.72 5.12 11.946 15.36 18.773 18.773 18.773 3.413-1.707 11.947-17.067 8.533-37.547 0 0-3.413-13.653-1.706-29.013 0 0 5.12-18.773 1.706-23.893 0 0-5.12-3.414-1.706-18.774 0 0 1.706-8.533 1.706-13.653 0-5.12-1.706-10.24 3.414-27.307 3.413-17.066 5.12-18.773 8.533-30.72s3.413-17.066 5.12-20.48c5.12-3.413 6.827-3.413 5.12-11.946zm228.693 269.653c3.414 11.947 5.12 11.947 11.947 18.773 8.533 5.12 20.48 11.947 27.307 15.36 8.533 3.414 18.773-15.36 18.773-15.36 6.827-13.653 5.12-29.013 5.12-35.84-1.707-6.826 0-10.24 1.707-17.066s1.706-8.534 1.706-15.36-1.706-13.654-3.413-18.774c-1.707-5.12-3.413-11.946 0-17.066 3.413-3.414 1.707-13.654 1.707-18.774-1.707-5.12-1.707-10.24 0-15.36 1.706-5.12 1.706-23.893 1.706-30.72-1.706-6.826 0-11.946 0-22.186s0-18.774-1.706-25.6c-1.707-5.12 0-27.307-1.707-42.667-1.707-17.067-1.707-34.133-1.707-51.2s-1.706-27.307-3.413-34.133c-1.707-5.12-1.707-13.654 1.707-18.774 1.706-5.12 3.413-13.653 1.706-20.48-1.706-8.533-3.413-10.24-3.413-15.36-1.707-5.12 0-11.946 1.707-17.066 1.706-5.12 3.413-15.36 3.413-15.36 0-11.947-5.12-22.187-11.947-30.72a693.693 693.693 0 0 1-11.946-15.36c-10.24-8.534-18.774-6.827-25.6-5.12-5.12 1.706-13.654 1.706-30.72 3.413-15.36 1.707-23.894 5.12-27.307 8.533-5.12 3.414-5.12 3.414-11.947 3.414-5.12-1.707-8.533 1.706-13.653 3.413-5.12 1.707-15.36 1.707-15.36 1.707-10.24 1.706-34.133 8.533-34.133 8.533-13.654 3.413-22.187 8.533-27.307 10.24-5.12 3.413-13.653 6.827-13.653 6.827-8.534 10.24-22.187 11.946-22.187 11.946-10.24 1.707-37.547 10.24-37.547 10.24-5.12 1.707-5.12 3.414-5.12 3.414s11.947 1.706 15.36 6.826c3.414 5.12 3.414 5.12 10.24 6.827 5.12 1.707 18.774 0 25.6-1.707 6.827-1.706 17.067-5.12 23.894-8.533 6.826-3.413 13.653-5.12 23.893-8.533 8.533-3.414 23.893-8.534 32.427-11.947 10.24-3.413 17.066-3.413 23.893-5.12l20.48-5.12c6.827-1.707 17.067-1.707 23.893-1.707 6.827 0 8.534 1.707 15.36 1.707s11.947 1.707 17.067 6.827c5.12 5.12 8.533 11.946 8.533 11.946 3.414 11.947 1.707 13.654 0 25.6-1.706 10.24-3.413 44.374-3.413 58.027 0 13.653-3.413 39.253-3.413 39.253-3.414 15.36 0 15.36 1.706 25.6s-1.706 32.427-1.706 32.427c-3.414 5.12-3.414 15.36-3.414 20.48 1.707 5.12 1.707 8.533 1.707 8.533-1.707 8.534 1.707 39.254 5.12 52.907 3.413 13.653 0 20.48-3.413 23.893-3.414 3.414-5.12 17.067-3.414 23.894 1.707 8.533 1.707 17.066-1.706 20.48-3.414 5.12-5.12 0-10.24-5.12s-15.36-13.654-18.774-11.947c-3.413 1.707 1.707 23.893 6.827 30.72 5.12 6.827 5.12 11.947 8.533 17.067 1.707 5.12 8.534 13.653 8.534 13.653-3.414 3.413-1.707 13.653 1.706 25.6z"/><path fill="#fff" d="M1894.4 285.013c-3.413-8.533-5.12-11.946-10.24-17.066-3.413-5.12-10.24-5.12-17.067-3.414-6.826 1.707-20.48 3.414-20.48 3.414-10.24 0-20.48 5.12-27.306 8.533-6.827 3.413-17.067 8.533-23.894 8.533-8.533 1.707-11.946 3.414-20.48 6.827s-13.653 8.533-18.773 10.24c-5.12 1.707-8.533 3.413-11.947 8.533-5.12 5.12-13.653 8.534-13.653 8.534-17.067 5.12-10.24 11.946-10.24 11.946l15.36 5.12c10.24 3.414 5.12 3.414 5.12 3.414-1.707 11.946 5.12 17.066 11.947 17.066 6.826 0 17.066-1.706 23.893-1.706 5.12 0 6.827-1.707 8.533 5.12 1.707 6.826 1.707 11.946 1.707 11.946 1.707 20.48-10.24 17.067-10.24 17.067-39.253 17.067-46.08 25.6-49.493 30.72-3.414 5.12-8.534 13.653-5.12 17.067 3.413 3.413 10.24 8.533 13.653 8.533 3.413 0 5.12 0 8.533 6.827s5.12 8.533 10.24 6.826c5.12-1.706 6.827 0 6.827 0s0 5.12-1.707 10.24-5.12 13.654-10.24 17.067c-3.413 1.707-5.12 5.12-8.533 10.24s-3.413 3.413-5.12 8.533c-1.707 5.12-3.413 8.534-3.413 8.534-5.12 17.066 3.413 25.6 8.533 30.72 5.12 5.12 23.893 3.413 30.72 1.706 5.12-1.706 5.12 0 11.947-3.413 5.12-3.413 8.533-3.413 17.066-5.12 8.534-3.413 13.654-5.12 18.774-10.24 5.12-5.12 17.066-8.533 23.893-13.653 6.827-5.12 17.067-5.12 22.187-8.534 5.12-1.706 15.36-8.533 20.48-13.653 5.12-5.12 8.533-3.413 10.24-8.533l3.413-10.24h-5.12c-3.413 0 3.413-11.947 3.413-11.947-5.12 1.707-11.946 0-17.066-1.707-3.414-1.706-13.654-1.706-18.774 0-3.413 1.707-1.706-8.533 0-13.653 1.707-5.12 1.707-8.533 1.707-8.533-3.413-5.12 8.533-3.414 8.533-3.414 6.827-17.066 13.654-18.773 17.067-23.893 3.413-5.12 8.533-8.533 8.533-15.36 1.707-6.827-1.706-11.947-8.533-17.067-6.827-5.12-13.653-10.24-23.893-17.066-8.534-6.827-3.414-8.534-1.707-15.36 1.707-8.534 8.533-8.534 17.067-18.774 8.533-10.24 5.12-6.826 8.533-11.946 1.707-5.12 5.12-6.827 5.12-6.827 3.413-8.533 0-8.533 1.707-13.653-1.707-3.414 1.706 0-1.707-8.534z"/><path fill="#fff" d="M1890.987 431.787s-1.707 1.706-3.414 5.12c-3.413 5.12-3.413 5.12 3.414 5.12 5.12 0 5.12-1.707 15.36-3.414 10.24-1.706 13.653-3.413 23.893-3.413 0 0 10.24 1.707 11.947-13.653 3.413-17.067-3.414-20.48-10.24-22.187-5.12-1.707-8.534-1.707-11.947-3.413-5.12-1.707-15.36-6.827-15.36-6.827s6.827 13.653 1.707 20.48c-1.707 1.707-13.654 15.36-15.36 22.187zm556.373 175.786c1.707-3.413-1.707-1.706 3.413-5.12 0 0 1.707-1.706 1.707-5.12 1.707-3.413 3.413-8.533 8.533-10.24 5.12-1.706 3.414-1.706 6.827-3.413 3.413 0 5.12-1.707 5.12-5.12 0-3.413 0-3.413-5.12-5.12-5.12 0-5.12-3.413-5.12-3.413s1.707-1.707 1.707-5.12c1.706-5.12-3.414 0-3.414-5.12s-3.413 3.413-3.413 3.413 0-1.707-1.707-1.707c0-1.706 0-3.413-1.706-1.706s-3.414-3.414 0-5.12c0 0-3.414-1.707-5.12-5.12 0 0-1.707 0-1.707 1.706 0 3.414-3.413 3.414-3.413 0 0-1.706 3.413-3.413 3.413-3.413s1.707-3.413-3.413 0c-3.414 1.707-3.414 0-1.707-1.707s-1.707-1.706-3.413-1.706c-3.414 0-3.414 0-5.12 3.413-3.414 3.413-5.12 5.12-8.534 6.827-1.706 1.706-5.12 1.706-6.826 3.413-3.414 1.707-15.36 3.413-23.894 5.12-10.24 1.707-29.013 6.827-34.133 8.533-5.12 1.707-10.24 1.707-15.36 3.414-3.413 0-17.067 0-22.187 1.706-6.826 1.707-11.946 1.707-15.36 3.414-3.413 0-6.826-1.707-6.826-1.707s-6.827-1.707-8.534-1.707l-3.413-5.12c-3.413-5.12-3.413-6.826-6.827-17.066-3.413-6.827 0-11.947 3.414-17.067 3.413-3.413 10.24-11.947 13.653-15.36 3.413-3.413 6.827-3.413 13.653-3.413 0 0 5.12-1.707 10.24-1.707s8.534-1.707 11.947-3.413c3.413-1.707 5.12-1.707 8.533-1.707s8.534-3.413 11.947-3.413c3.413 0 10.24-1.707 15.36-1.707 6.827 0 8.533-1.707 13.653-1.707 5.12 0 6.827 0 10.24-5.12 3.414-3.413 3.414-8.533 8.534-13.653 5.12-5.12 10.24-6.827 8.533-11.947v-15.36s1.707-3.413-1.707-10.24c-3.413-6.826-6.826-8.533-8.533-13.653-1.707-5.12-5.12-6.827 0-18.773 5.12-11.947 10.24-20.48 11.947-27.307 1.706-6.827 0-6.827 3.413-13.653 1.707-3.414 1.707-5.12 3.413-11.947 1.707-6.827 1.707-5.12 3.414-11.947V332.8c0-3.413-1.707-5.12-1.707-8.533s0 1.706-1.707-5.12-3.413-6.827-5.12-10.24c-3.413-3.414-6.826-8.534-6.826-15.36 0 0 3.413-3.414-6.827-10.24 0 0-5.12-3.414-8.533-3.414s-6.827 0-10.24-3.413c-3.414-3.413-10.24-3.413-13.654-3.413-3.413 0-5.12 0-10.24-1.707-3.413-1.707-11.946 1.707-13.653 3.413-3.413 1.707-25.6 11.947-34.133 17.067-6.827 5.12-10.24 6.827-15.36 8.533-5.12 1.707-6.827 0-5.12-5.12 1.706-6.826 3.413-17.066 5.12-27.306 1.706-11.947-1.707-22.187-10.24-25.6-8.534-5.12-18.774-13.654-27.307-11.947 0 0-5.12-1.707-5.12 3.413 1.707 5.12-1.707 8.534-3.413 13.654 0 0-8.534 11.946-10.24 25.6-1.707 13.653-5.12 27.306-5.12 34.133-1.707 6.827-1.707 11.947-10.24 17.067-8.534 3.413-42.667 23.893-44.374 29.013 0 0 10.24-1.707 11.947 5.12 1.707 5.12 5.12 3.413 11.947 1.707 5.12-1.707 11.946-6.827 13.653-1.707 0 0 1.707 1.707 1.707 8.533 1.706 5.12 1.706 6.827-1.707 11.947-3.413 5.12-3.413 6.827-13.653 18.773-10.24 11.947-20.48 18.774-25.6 20.48-5.12 1.707-5.12 0-3.414-6.826 0 0 1.707-18.774 3.414-25.6 1.706-5.12 1.706-8.534-1.707-15.36s-8.533-10.24-10.24-13.654c-1.707-3.413 0-1.706-5.12-5.12-5.12-3.413-5.12-8.533-5.12-11.946 0-3.414-5.12-6.827-6.827 1.706-1.706 8.534-10.24 22.187-13.653 27.307-3.413 5.12-8.533 10.24-6.827 22.187s1.707 17.066 1.707 30.72c-1.707 13.653-3.413 35.84-5.12 47.786-3.413 11.947-5.12 11.947-6.827 20.48-1.706 8.534-3.413 13.654 5.12 20.48 8.534 6.827 11.947 8.534 17.067 8.534 5.12 1.706 5.12 3.413 8.533 6.826 1.707 3.414 3.414 6.827 10.24 10.24 5.12 3.414 11.947 10.24 25.6 10.24 0 0 6.827-1.706 10.24 8.534 3.414 10.24 5.12 32.426 13.654 46.08 0 0 3.413 10.24 8.533 10.24 0 0 5.12 6.826 11.947 10.24 8.533 3.413 17.066 10.24 30.72 11.946 13.653 1.707 23.893 3.414 35.84 3.414 11.946 0 25.6 5.12 49.493-3.414 0 0 11.947-3.413 18.773-3.413s8.534-1.707 22.187-5.12c13.653-5.12 42.667-11.947 49.493-13.653 5.12 0 10.24 0 11.947-3.414zm18.773-42.666c0 3.413-3.413 3.413-3.413 0 0-1.707 3.413 0 3.413 0zM2350.08 402.773c-3.413 10.24-3.413 11.947-5.12 18.774 0 6.826-5.12 10.24-11.947 13.653-5.12 3.413-13.653 6.827-20.48 10.24-6.826 3.413-13.653 5.12-18.773 3.413-6.827-3.413-6.827-8.533-6.827-13.653v-10.24c0-5.12 5.12-8.533 5.12-8.533 11.947-13.654 42.667-20.48 47.787-22.187 6.827-1.707 11.947 1.707 10.24 8.533zm-66.56-59.733c1.707-6.827 11.947-13.653 11.947-13.653 8.533-5.12 23.893-6.827 27.306-10.24 3.414-3.414 8.534-3.414 13.654-3.414h10.24c3.413 1.707 5.12 1.707 10.24 1.707s6.826 1.707 6.826 1.707c-1.706 3.413 3.414 10.24 3.414 10.24 1.706 6.826-6.827 10.24-6.827 10.24-6.827-1.707-11.947 3.413-20.48 8.533s-15.36 10.24-22.187 10.24-18.773 3.413-27.306 0c-8.534-1.707-8.534-6.827-6.827-15.36zm-75.093 119.467c-1.707 6.826-3.414 11.946-5.12 18.773-1.707 6.827-6.827 8.533-6.827 8.533-15.36 3.414-29.013 15.36-30.72 13.654-1.707-1.707-1.707-3.414 0-6.827 1.707-5.12 0-5.12 0-5.12-1.707-8.533 0-1.707 0-6.827 1.707-6.826 0-5.12 1.707-10.24 0-5.12 5.12-13.653 6.826-18.773 1.707-5.12 3.414-3.413 3.414-3.413 1.706-3.414 11.946-5.12 17.066-6.827 5.12-1.707 6.827-1.707 11.947 1.707 1.707 3.413 1.707 6.826 1.707 15.36zm387.413-29.014c1.707-1.706 1.707-3.413 6.827-3.413 3.413 0 10.24 6.827 10.24 13.653 1.706 6.827 3.413 11.947 3.413 18.774 0 6.826 1.707 23.893 1.707 30.72 0 6.826-1.707 10.24-3.414 15.36-1.706 3.413-1.706 11.946-3.413 17.066 0 6.827 0 13.654-3.413 20.48-1.707 6.827-8.534 25.6-8.534 47.787 0 0-1.706 13.653 0 23.893 1.707 10.24 1.707 13.654 6.827 18.774 3.413 1.706 5.12 3.413 6.827 1.706 1.706-1.706 3.413-6.826 8.533-6.826 3.413 0 6.827 1.706 5.12-3.414 0 0-1.707-6.826 1.707-10.24 0 0 3.413-1.706 5.12-1.706s3.413-1.707 5.12-3.414c1.706-3.413 3.413-3.413 5.12-10.24 1.706-6.826 3.413-27.306 3.413-40.96s3.413-32.426 5.12-49.493c1.707-18.773 3.413-32.427 5.12-49.493v-23.894c0-11.946-3.413-17.066 1.707-20.48 0 0 3.413-5.12 3.413-13.653s1.707-11.947-1.707-13.653c-3.413-1.707 0-1.707-5.12-3.414-6.826-3.413-5.12-5.12-10.24-6.826-5.12-1.707-1.706-3.414-6.826-3.414-3.414-1.706-11.947-3.413-17.067 0 0 0 0-5.12 3.413-11.946 0 0 1.707 0 1.707-6.827s-1.707-11.947 0-13.653c3.413-1.707 3.413-11.947-1.707-22.187-5.12-10.24-11.946-18.773-11.946-25.6 0-6.827-8.534-20.48-13.654-22.187 0 0-5.12 0-5.12 5.12s-1.706 5.12-1.706 11.947c0 6.827-3.414 13.653-3.414 18.773 0 5.12-1.706 3.414-3.413 8.534s-6.827 11.946-8.533 20.48c-3.414 8.533-10.24 22.186-13.654 30.72L2556.587 384c-3.414 6.827-6.827 10.24-8.534 13.653 0 0-3.413 3.414-5.12 6.827-3.413 3.413-3.413 3.413-5.12 10.24-1.706 6.827-3.413 11.947-3.413 20.48v15.36c0 5.12-1.707 6.827 1.707 8.533 3.413 3.414 8.533 1.707 8.533 11.947 0 11.947 0 22.187-1.707 25.6 0 0 5.12-3.413 3.414-10.24 0 0 1.706 3.413 1.706 6.827 0 0 3.414-3.414 5.12-10.24 1.707-6.827 5.12-10.24 8.534-13.654 3.413-1.706 18.773-18.773 22.186-22.186 6.827-8.534 11.947-11.947 11.947-13.654zm312.32-182.613c-5.12-1.707-17.067 0-23.893 0h-25.6c-3.414 0-6.827 0-6.827-5.12 0-3.413 1.707-5.12 0-10.24-1.707-3.413 0-8.533-1.707-15.36 0-5.12 0-6.827-1.706-8.533-3.414-3.414-5.12-5.12-10.24-5.12-3.414 0-5.12-1.707-8.534-3.414s-3.413-3.413-8.533-3.413l-10.24-5.12s-11.947-6.827-17.067-6.827c-6.826 0-10.24 8.534-10.24 13.654-1.706 5.12-3.413 3.413-3.413 3.413-3.413-3.413-8.533 0-10.24 3.413-1.707 3.414-3.413 1.707-3.413 1.707-3.414 1.707-10.24 8.533-13.654 10.24-3.413 3.413 1.707 3.413 1.707 3.413l-3.413 3.414c-3.414 0-8.534 3.413-8.534 3.413s-6.826 0-5.12 3.413c1.707 3.414 10.24 3.414 18.774-6.826 0 0 1.706 1.706 8.533 0 0 0 15.36-3.414 15.36 0 0 0-1.707 3.413-6.827 3.413-3.413 0-15.36 0-17.066 3.413 0 0 3.413 3.414 10.24 3.414 6.826 0 11.946-1.707 18.773 5.12 6.827 6.826 11.947 8.533 10.24 13.653-1.707 3.413-6.827 8.533-11.947 10.24-5.12 1.707-10.24 0-15.36 1.707-5.12 1.706-10.24 3.413-18.773 3.413s-17.067 0-18.773 1.707c-3.414 1.706-11.947 5.12-18.774 5.12h-13.653c-5.12 1.706-10.24 0-17.067 3.413-8.533 3.413-11.946 10.24-11.946 3.413 0-5.12-6.827 3.414-6.827 8.534s0 8.533 5.12 10.24c5.12 1.706 8.533 1.706 11.947 3.413 3.413 3.413 8.533 0 13.653-1.707 5.12-1.706 11.947-5.12 20.48-6.826 8.533 0 11.947-3.414 17.067-3.414 5.12-1.706 22.186-5.12 34.133-5.12s35.84-1.706 51.2-1.706h42.667c3.413 0 8.533 0 10.24-1.707 3.413-1.707 11.946-3.413 17.066-1.707 3.414 1.707 3.414 1.707 8.534 1.707s6.826-1.707 10.24-3.413c3.413-1.707 1.706-8.534 1.706-11.947 0-3.413 5.12-5.12 10.24-8.533s5.12-6.827 5.12-6.827c-3.413-1.707-8.533-3.413-13.653-5.12zm-116.053 102.4c5.12 3.413 10.24 5.12 17.066 8.533s11.947 6.827 22.187 6.827c11.947 1.707 15.36-1.707 22.187 1.707 0 0 5.12 1.706 8.533-1.707s5.12-11.947 8.533-15.36l1.707-5.12c0-5.12 1.707-11.947-1.707-11.947s-5.12-1.706-6.826-6.826c-1.707-5.12-3.414-5.12-6.827-6.827-3.413 0-5.12 0-6.827-3.413-3.413-3.414-8.533-6.827-11.946-5.12-3.414 0-6.827 1.706-13.654 0s-22.186-3.414-27.306-3.414c-3.414 1.707-22.187 6.827-29.014 10.24 0 0-6.826 3.414-5.12 8.534 0 3.413 3.414 10.24 10.24 11.946 5.12 3.414 13.654 8.534 18.774 11.947zm-49.494 40.96c0 5.12 1.707 6.827 6.827 15.36 5.12 6.827 11.947 13.653 17.067 18.773 5.12 5.12 11.946 6.827 22.186 6.827s18.774 1.707 22.187 3.413c3.413 3.414 6.827 6.827 11.947 5.12 6.826-1.706 5.12-1.706 10.24-1.706s6.826-3.414 11.946-3.414 6.827-1.706 10.24-5.12c3.414-3.413 5.12-5.12 6.827-15.36 1.707-6.826 0-11.946 3.413-11.946 0 0 5.12 0 6.827-6.827 0-6.827-1.707-8.533-6.827-10.24-5.12 0-8.533-1.707-13.653 0-3.413 1.707-5.12 1.707-13.653 0-10.24-3.413-15.36-3.413-22.187-5.12-8.533 0-22.187 1.707-34.133 1.707-13.654 0-27.307 3.413-32.427 3.413 0 0-6.827 0-6.827 5.12zm6.827 250.88c3.413 3.413 3.413 6.827 6.827 3.413 1.706-3.413 1.706-10.24 6.826-13.653 0 0 1.707 0 1.707-6.827 0-8.533 1.707-13.653 3.413-20.48 1.707-6.826 1.707-17.066 3.414-25.6 1.706-6.826 1.706-10.24 1.706-15.36 0-5.12-1.706-6.826-3.413-11.946-1.707-3.414-1.707-3.414-1.707-6.827v-6.827c0-3.413-1.706-5.12 3.414-3.413 5.12 0 15.36 5.12 22.186-3.413 8.534-8.534 17.067-15.36 20.48-17.067 3.414-1.707 5.12 0 6.827 6.827 0 5.12 1.707 15.36 0 18.773-3.413 3.413-11.947 13.653-18.773 18.773-5.12 6.827-13.654 10.24-15.36 17.067-1.707 6.827-1.707 10.24-1.707 18.773 0 8.534-3.413 11.947 3.413 15.36 6.827 3.414 8.534 5.12 13.654 8.534 3.413 3.413 3.413 1.706 10.24 3.413 6.826 0 15.36 1.707 22.186 0 6.827-3.413 11.947-3.413 18.774-1.707 3.413 0 3.413 0 10.24 1.707 6.826 1.707 5.12 0 11.946 0h8.534c3.413-1.707 8.533-5.12 11.946-6.827 5.12-1.706 3.414-10.24 3.414-13.653 0-3.413 3.413-5.12 3.413-11.947 0-5.12-1.707-6.826-6.827-8.533-3.413 0-3.413-3.413-8.533-6.827s-1.707-8.533 0-13.653c1.707-3.413 5.12-13.653 8.533-20.48 3.414-6.827 0-17.067 0-22.187 0-5.12 1.707-3.413 1.707-11.946 0-8.534-1.707-10.24-8.533-17.067s-3.414-6.827-5.12-10.24c-1.707-3.413-3.414-5.12-6.827-8.533-5.12-3.414-6.827-5.12-6.827-5.12-6.826-3.414-15.36-3.414-20.48-3.414-5.12 0-8.533-3.413-8.533-3.413-3.413 0-11.947 6.827-18.773 11.947-6.827 5.12-15.36 6.826-25.6 11.946-10.24 5.12-22.187 13.654-29.014 13.654-6.826 0-10.24 1.706-13.653-1.707-3.413-3.413-6.827-8.533-8.533-11.947-1.707-3.413-3.414-6.826-13.654-8.533-10.24-1.707-13.653-11.947-13.653-11.947s-5.12-1.706-5.12 5.12 0 10.24-1.707 15.36c-1.706 5.12-1.706 11.947 0 17.067 1.707 5.12 3.414 10.24 3.414 20.48 0 11.947-1.707 25.6 0 30.72 0 5.12 1.706 6.827 0 13.653s1.706 15.36 1.706 20.48c0 5.12 5.12 15.36 6.827 20.48 1.707 5.12 1.707 6.827 0 11.947 0 3.413 0 10.24 5.12 11.947 5.12 1.706 6.827 0 13.653 3.413 3.414 8.533 1.707 6.827 6.827 10.24zm-832.853-110.933s-1.707-1.707-5.12 0c-3.414 1.706-5.12 3.413-13.654 5.12-8.533 1.706-11.946 1.706-13.653 3.413-3.413 1.707-3.413 1.707-6.827 1.707s-5.12 0-8.533 3.413-5.12 3.413-11.947 3.413c-5.12 0-10.24 0-15.36 3.414-5.12 3.413-8.533 5.12-15.36 6.826-6.826 1.707-8.533 1.707-13.653 3.414-5.12 1.706-6.827 1.706-11.947 1.706-5.12 0-8.533 1.707-11.946 3.414-3.414 1.706-8.534 6.826-13.654 5.12-5.12-3.414-13.653-1.707-18.773 1.706-5.12 3.414-8.533 3.414-15.36 3.414-5.12 0-8.533-3.414-13.653 0-3.414 3.413-10.24 0-13.654 0 0 0 6.827 11.946 10.24 18.773 3.414 6.827 8.534 18.773 11.947 18.773 3.413 0 18.773 1.707 46.08-13.653 0 0 1.707-1.707 8.533-3.413s18.774-6.827 23.894-8.534c5.12-3.413 6.826-6.826 11.946-6.826 3.414 0 10.24-3.414 15.36-6.827 5.12-3.413 15.36-10.24 18.774-13.653 3.413-3.414 13.653-10.24 25.6-15.36 0 0 13.653-8.534 17.066-10.24 8.534 3.413 13.654-1.707 13.654-5.12zm-416.427 204.8h39.253V865.28h-39.253zm728.747 0h-37.547V865.28h100.693V844.8h-63.146zm-552.96 73.386l-78.507-73.386h-22.187V865.28h29.014v-80.213l85.333 80.213h15.36V738.987h-29.013zm-252.587-22.186h-42.667v-51.2h-39.253V865.28h39.253v-54.613h42.667v54.613h39.253V738.987h-39.253zm353.28-51.2l-58.027 126.293h32.427l11.947-30.72h54.613l13.653 30.72h39.254l-58.027-126.293h-35.84zm-5.12 76.8l18.773-46.08 20.48 46.08h-39.253zm158.72-58.027h37.547v107.52h39.253V757.76h35.84v-18.773h-112.64zm168.96 52.907h49.493v-18.774H2099.2V757.76h64.853v-18.773h-104.106V865.28h107.52V844.8H2099.2zm257.707 0h49.493v-18.774h-49.493V757.76h64.853v-18.773h-104.107V865.28h107.52V844.8h-68.266zm469.333 18.773l-63.147-88.747h-29.013V865.28h27.307v-73.387l47.786 73.387h18.774l52.906-73.387v73.387h35.84V740.693h-27.306zm-182.613-92.16c-40.96 0-69.974 22.187-69.974 64.853 0 46.08 30.72 64.854 69.974 64.854s69.973-18.774 69.973-64.854c0-35.84-18.773-64.853-69.973-64.853zm30.72 83.627c-3.414 32.426-32.427 27.306-32.427 27.306-22.187 0-25.6-10.24-25.6-10.24-6.827-10.24-3.413-46.08-3.413-46.08 0-42.666 30.72-35.84 30.72-35.84 25.6-1.706 29.013 15.36 29.013 15.36 5.12 18.774 1.707 49.494 1.707 49.494zm-232.107-18.774c0 46.08 34.133 64.854 78.507 64.854 13.653 0 27.306-1.707 37.546-6.827v-18.773c-8.533 3.413-29.013 6.826-29.013 6.826-30.72 0-46.08-13.653-46.08-46.08 0-29.013 15.36-46.08 46.08-46.08 13.653 0 22.187 1.707 29.013 6.827V742.4c-10.24-3.413-22.186-3.413-37.546-3.413-47.787-1.707-78.507 22.186-78.507 63.146zm-1242.453 0c0 46.08 34.133 64.854 78.506 64.854 13.654 0 27.307-1.707 37.547-6.827v-18.773c-8.533 3.413-29.013 6.826-29.013 6.826-30.72 0-46.08-13.653-46.08-46.08 0-29.013 15.36-46.08 46.08-46.08 13.653 0 22.186 1.707 29.013 6.827V742.4c-10.24-3.413-22.187-3.413-37.547-3.413-47.786-1.707-78.506 22.186-78.506 63.146zM783.36 112.64l11.947 46.08c46.08 10.24 76.8 30.72 83.626 59.733C896 286.72 781.653 370.347 624.64 409.6c-10.24 1.707-20.48 5.12-30.72 6.827 11.947-109.227 44.373-184.32 88.747-184.32 13.653 0 23.893 6.826 34.133 17.066l35.84-10.24C718.507 163.84 669.013 117.76 616.107 117.76c-85.334 0-162.134 131.413-182.614 308.907-66.56-6.827-114.346-29.014-124.586-66.56-13.654-52.907 52.906-114.347 157.013-158.72-3.413-10.24-6.827-25.6-8.533-34.134-177.494 66.56-290.134 179.2-266.24 276.48 18.773 73.387 112.64 117.76 237.226 124.587 10.24 196.267 90.454 358.4 189.44 358.4 85.334 0 162.134-122.88 184.32-307.2l-61.44 15.36c-13.653 95.573-40.96 160.427-71.68 160.427-39.253-1.707-73.386-105.814-78.506-237.227 22.186-3.413 46.08-8.533 69.973-13.653C889.173 484.693 1053.013 348.16 1024 233.813c-17.067-73.386-112.64-116.053-240.64-121.173z"/></svg>