<svg xmlns="http://www.w3.org/2000/svg" width="24" height="24" fill="none" viewBox="0 0 24 24"><path fill="#4B64F9" d="M0 0v12c0 6.627 5.373 12 12 12h12V0H0z"/><path fill="#FFF" d="M11.999 4.8A7.2 7.2 0 0 0 4.8 12a7.2 7.2 0 1 0 14.398 0 7.2 7.2 0 0 0-7.199-7.2zm3.788 5.147l-4.783 5.256c-.006.007-.012.017-.02.024l-.019.02-.024.02-.025.019-.024.014-.025.015c-.009.005-.016.015-.025.015-.008 0-.02.014-.029.014-.009 0-.015.01-.024.01-.01 0-.02.01-.03.01-.01 0-.02.01-.03.01-.009 0-.019.01-.029.01-.01 0-.02.004-.029.004-.01 0-.02.005-.03.005h-.029c-.01 0-.02.005-.03.005h-.029c-.01 0-.02-.005-.03-.005h-.028c-.01 0-.02-.005-.03-.005-.01 0-.02-.005-.03-.005-.009 0-.02-.01-.029-.01-.01 0-.02-.01-.03-.01-.008 0-.014-.009-.024-.009-.009 0-.02-.01-.029-.01-.009 0-.016-.014-.024-.014-.01 0-.021-.01-.03-.015l-.024-.015c-.009-.005-.017-.013-.025-.02l-.02-.014-.024-.02-.02-.019-2.278-2.278a.581.581 0 0 1 .005-.826.585.585 0 0 1 .828 0l1.837 1.838 4.367-4.805a.589.589 0 0 1 .872.792z"/></svg>